<?xml version="1.0" encoding="UTF-8" standalone="no"?>
<svg
   width="24"
   height="24"
   fill="none"
   viewBox="0 0 24 24"
   version="1.1"
   id="svg2"
   sodipodi:docname="folderIcon.svg"
   inkscape:version="1.3.2 (091e20ef0f, 2023-11-25)"
   xmlns:inkscape="http://www.inkscape.org/namespaces/inkscape"
   xmlns:sodipodi="http://sodipodi.sourceforge.net/DTD/sodipodi-0.dtd"
   xmlns="http://www.w3.org/2000/svg"
   xmlns:svg="http://www.w3.org/2000/svg">
  <defs
     id="defs2" />
  <sodipodi:namedview
     id="namedview2"
     pagecolor="#ffffff"
     bordercolor="#000000"
     borderopacity="0.25"
     inkscape:showpageshadow="2"
     inkscape:pageopacity="0.0"
     inkscape:pagecheckerboard="0"
     inkscape:deskcolor="#d1d1d1"
     inkscape:zoom="31.083333"
     inkscape:cx="11.983914"
     inkscape:cy="12"
     inkscape:window-width="1920"
     inkscape:window-height="989"
     inkscape:window-x="0"
     inkscape:window-y="0"
     inkscape:window-maximized="1"
     inkscape:current-layer="svg2" />
  <path
     d="M2 6.25A2.25 2.25 0 0 1 4.25 4h3.956a2.25 2.25 0 0 1 1.438.52l2.381 1.98h5.725A2.25 2.25 0 0 1 20 8.75v.752H6.422a2.25 2.25 0 0 0-2.183 1.705l-1.923 7.7c.043-.171 0 .005 0 0a2.24 2.24 0 0 1-.32-1.158L2 6.25Z"
     fill="#212121"
     id="path1"
     style="fill:#808080;fill-opacity:1" />
  <path
     d="M3.745 19.379A.5.5 0 0 0 4.23 20h14.24a1.75 1.75 0 0 0 1.698-1.326l1.763-7.05a.5.5 0 0 0-.485-.622H6.422a.75.75 0 0 0-.728.568L3.745 19.38Z"
     fill="#212121"
     id="path2"
     style="fill:#808080;fill-opacity:1" />
</svg>
