<?xml version="1.0" encoding="UTF-8" standalone="no"?>
<svg
   width="24"
   height="24"
   fill="none"
   viewBox="0 0 24 24"
   version="1.1"
   id="svg1"
   sodipodi:docname="warning.svg"
   inkscape:version="1.3.2 (091e20ef0f, 2023-11-25)"
   xmlns:inkscape="http://www.inkscape.org/namespaces/inkscape"
   xmlns:sodipodi="http://sodipodi.sourceforge.net/DTD/sodipodi-0.dtd"
   xmlns="http://www.w3.org/2000/svg"
   xmlns:svg="http://www.w3.org/2000/svg">
  <defs
     id="defs1" />
  <sodipodi:namedview
     id="namedview1"
     pagecolor="#ffffff"
     bordercolor="#000000"
     borderopacity="0.25"
     inkscape:showpageshadow="2"
     inkscape:pageopacity="0.0"
     inkscape:pagecheckerboard="0"
     inkscape:deskcolor="#d1d1d1"
     inkscape:zoom="31.083333"
     inkscape:cx="11.983914"
     inkscape:cy="12"
     inkscape:window-width="1920"
     inkscape:window-height="989"
     inkscape:window-x="0"
     inkscape:window-y="0"
     inkscape:window-maximized="1"
     inkscape:current-layer="svg1" />
  <path
     d="M 12,2 C 17.523,2 22,6.478 22,12 22,17.522 17.523,22 12,22 6.477,22 2,17.522 2,12 2,6.478 6.477,2 12,2 Z m 0.002,13.004 a 0.999,0.999 0 1 0 0,1.997 0.999,0.999 0 0 0 0,-1.997 z M 12,7 A 1,1 0 0 0 11.007,7.884 L 11,8 l 0.002,5.001 0.007,0.117 a 1,1 0 0 0 1.986,0 L 13.002,13.001 13,8 12.993,7.883 A 1,1 0 0 0 12,7 Z"
     fill="#212121"
     id="path1"
     style="opacity:1;mix-blend-mode:normal;fill:#ffffff;fill-opacity:1" />
</svg>
